<svg xmlns="http://www.w3.org/2000/svg" xmlns:xlink="http://www.w3.org/1999/xlink" width="500" zoomAndPan="magnify" viewBox="0 0 375 374.999991" height="500" preserveAspectRatio="xMidYMid meet" version="1.0"><defs><g/><clipPath id="db9694b3f3"><path d="M 114 135 L 278.230469 135 L 278.230469 224 L 114 224 Z M 114 135 " clip-rule="nonzero"/></clipPath><clipPath id="5424d02347"><path d="M 187 222 L 205 222 L 205 239.914062 L 187 239.914062 Z M 187 222 " clip-rule="nonzero"/></clipPath><clipPath id="c30f94bad4"><path d="M 244 222 L 263 222 L 263 239.914062 L 244 239.914062 Z M 244 222 " clip-rule="nonzero"/></clipPath><clipPath id="e973ff1837"><path d="M 80.980469 184 L 111 184 L 111 192 L 80.980469 192 Z M 80.980469 184 " clip-rule="nonzero"/></clipPath></defs><rect x="-37.5" width="450" fill="#ffffff" y="-37.499999" height="449.999989" fill-opacity="1"/><rect x="-37.5" width="450" fill="#ffffff" y="-37.499999" height="449.999989" fill-opacity="1"/><rect x="-37.5" width="450" fill="#03989e" y="-37.499999" height="449.999989" fill-opacity="1"/><g fill="#ffffff" fill-opacity="1"><g transform="translate(159.199676, 135.044594)"><g><path d="M 14.421875 0 L 7.6875 -9.421875 L 7.6875 0 L 1.703125 0 L 1.703125 -21.5 L 7.6875 -21.5 L 7.6875 -12.234375 L 14.359375 -21.5 L 21.265625 -21.5 L 13.359375 -11.078125 L 21.65625 0 Z M 14.421875 0 "/></g></g></g><g fill="#ffffff" fill-opacity="1"><g transform="translate(181.345762, 135.044594)"><g><path d="M 9.828125 0.21875 C 7.316406 0.21875 5.257812 -0.375 3.65625 -1.5625 C 2.050781 -2.757812 1.1875 -4.460938 1.0625 -6.671875 L 7.4375 -6.671875 C 7.5 -5.921875 7.722656 -5.375 8.109375 -5.03125 C 8.492188 -4.6875 8.992188 -4.515625 9.609375 -4.515625 C 10.160156 -4.515625 10.613281 -4.648438 10.96875 -4.921875 C 11.320312 -5.203125 11.5 -5.582031 11.5 -6.0625 C 11.5 -6.695312 11.203125 -7.1875 10.609375 -7.53125 C 10.023438 -7.875 9.070312 -8.257812 7.75 -8.6875 C 6.34375 -9.15625 5.207031 -9.609375 4.34375 -10.046875 C 3.476562 -10.484375 2.722656 -11.125 2.078125 -11.96875 C 1.441406 -12.8125 1.125 -13.914062 1.125 -15.28125 C 1.125 -16.664062 1.46875 -17.847656 2.15625 -18.828125 C 2.851562 -19.816406 3.8125 -20.566406 5.03125 -21.078125 C 6.25 -21.585938 7.632812 -21.84375 9.1875 -21.84375 C 11.6875 -21.84375 13.679688 -21.253906 15.171875 -20.078125 C 16.671875 -18.910156 17.46875 -17.269531 17.5625 -15.15625 L 11.078125 -15.15625 C 11.054688 -15.8125 10.851562 -16.300781 10.46875 -16.625 C 10.09375 -16.945312 9.613281 -17.109375 9.03125 -17.109375 C 8.582031 -17.109375 8.210938 -16.972656 7.921875 -16.703125 C 7.640625 -16.441406 7.5 -16.066406 7.5 -15.578125 C 7.5 -15.171875 7.65625 -14.820312 7.96875 -14.53125 C 8.289062 -14.238281 8.679688 -13.984375 9.140625 -13.765625 C 9.609375 -13.554688 10.300781 -13.289062 11.21875 -12.96875 C 12.582031 -12.5 13.707031 -12.035156 14.59375 -11.578125 C 15.476562 -11.117188 16.238281 -10.476562 16.875 -9.65625 C 17.519531 -8.832031 17.84375 -7.789062 17.84375 -6.53125 C 17.84375 -5.25 17.519531 -4.097656 16.875 -3.078125 C 16.238281 -2.066406 15.316406 -1.265625 14.109375 -0.671875 C 12.898438 -0.078125 11.472656 0.21875 9.828125 0.21875 Z M 9.828125 0.21875 "/></g></g></g><g fill="#ff6100" fill-opacity="1"><g transform="translate(213.527948, 253.811028)"><g><path d="M 3.390625 -2.3125 L 3.390625 0 L 2.6875 0 L 2.6875 -2.3125 L 0.015625 -6.6875 L 0.765625 -6.6875 L 3.0625 -2.9375 L 5.359375 -6.6875 L 6.0625 -6.6875 Z M 3.390625 -2.3125 "/></g></g></g><g fill="#ff6100" fill-opacity="1"><g transform="translate(222.577924, 253.811028)"><g><path d="M 4.015625 0.0625 C 3.347656 0.0625 2.742188 -0.0820312 2.203125 -0.375 C 1.671875 -0.675781 1.253906 -1.082031 0.953125 -1.59375 C 0.648438 -2.113281 0.5 -2.695312 0.5 -3.34375 C 0.5 -3.988281 0.648438 -4.566406 0.953125 -5.078125 C 1.253906 -5.597656 1.671875 -6.003906 2.203125 -6.296875 C 2.742188 -6.597656 3.347656 -6.75 4.015625 -6.75 C 4.679688 -6.75 5.28125 -6.601562 5.8125 -6.3125 C 6.34375 -6.019531 6.757812 -5.613281 7.0625 -5.09375 C 7.375 -4.570312 7.53125 -3.988281 7.53125 -3.34375 C 7.53125 -2.695312 7.375 -2.113281 7.0625 -1.59375 C 6.757812 -1.082031 6.34375 -0.675781 5.8125 -0.375 C 5.28125 -0.0820312 4.679688 0.0625 4.015625 0.0625 Z M 4.015625 -0.578125 C 4.546875 -0.578125 5.023438 -0.695312 5.453125 -0.9375 C 5.878906 -1.175781 6.210938 -1.503906 6.453125 -1.921875 C 6.691406 -2.347656 6.8125 -2.820312 6.8125 -3.34375 C 6.8125 -3.863281 6.691406 -4.335938 6.453125 -4.765625 C 6.210938 -5.191406 5.878906 -5.523438 5.453125 -5.765625 C 5.023438 -6.003906 4.546875 -6.125 4.015625 -6.125 C 3.484375 -6.125 3.003906 -6.003906 2.578125 -5.765625 C 2.148438 -5.523438 1.8125 -5.191406 1.5625 -4.765625 C 1.3125 -4.335938 1.1875 -3.863281 1.1875 -3.34375 C 1.1875 -2.820312 1.3125 -2.347656 1.5625 -1.921875 C 1.8125 -1.503906 2.148438 -1.175781 2.578125 -0.9375 C 3.003906 -0.695312 3.484375 -0.578125 4.015625 -0.578125 Z M 4.015625 -0.578125 "/></g></g></g><g fill="#ff6100" fill-opacity="1"><g transform="translate(233.578637, 253.811028)"><g><path d="M 3.78125 0.0625 C 2.914062 0.0625 2.238281 -0.1875 1.75 -0.6875 C 1.269531 -1.1875 1.03125 -1.910156 1.03125 -2.859375 L 1.03125 -6.6875 L 1.734375 -6.6875 L 1.734375 -2.890625 C 1.734375 -2.109375 1.910156 -1.523438 2.265625 -1.140625 C 2.617188 -0.765625 3.125 -0.578125 3.78125 -0.578125 C 4.457031 -0.578125 4.96875 -0.765625 5.3125 -1.140625 C 5.664062 -1.523438 5.84375 -2.109375 5.84375 -2.890625 L 5.84375 -6.6875 L 6.53125 -6.6875 L 6.53125 -2.859375 C 6.53125 -1.910156 6.289062 -1.1875 5.8125 -0.6875 C 5.332031 -0.1875 4.65625 0.0625 3.78125 0.0625 Z M 3.78125 0.0625 "/></g></g></g><g fill="#ff6100" fill-opacity="1"><g transform="translate(244.129917, 253.811028)"><g><path d="M 5.65625 0 L 4.125 -2.15625 C 3.957031 -2.132812 3.78125 -2.125 3.59375 -2.125 L 1.796875 -2.125 L 1.796875 0 L 1.09375 0 L 1.09375 -6.6875 L 3.59375 -6.6875 C 4.445312 -6.6875 5.113281 -6.484375 5.59375 -6.078125 C 6.082031 -5.671875 6.328125 -5.113281 6.328125 -4.40625 C 6.328125 -3.875 6.191406 -3.425781 5.921875 -3.0625 C 5.660156 -2.707031 5.285156 -2.453125 4.796875 -2.296875 L 6.4375 0 Z M 3.578125 -2.71875 C 4.242188 -2.71875 4.75 -2.863281 5.09375 -3.15625 C 5.445312 -3.457031 5.625 -3.875 5.625 -4.40625 C 5.625 -4.945312 5.445312 -5.359375 5.09375 -5.640625 C 4.75 -5.929688 4.242188 -6.078125 3.578125 -6.078125 L 1.796875 -6.078125 L 1.796875 -2.71875 Z M 3.578125 -2.71875 "/></g></g></g><g fill="#ff6100" fill-opacity="1"><g transform="translate(254.021388, 253.811028)"><g/></g></g><g fill="#ff6100" fill-opacity="1"><g transform="translate(259.504573, 253.811028)"><g><path d="M 2.9375 0.0625 C 2.4375 0.0625 1.957031 -0.015625 1.5 -0.171875 C 1.050781 -0.335938 0.703125 -0.550781 0.453125 -0.8125 L 0.734375 -1.359375 C 0.972656 -1.117188 1.289062 -0.921875 1.6875 -0.765625 C 2.09375 -0.617188 2.507812 -0.546875 2.9375 -0.546875 C 3.53125 -0.546875 3.976562 -0.65625 4.28125 -0.875 C 4.582031 -1.09375 4.734375 -1.378906 4.734375 -1.734375 C 4.734375 -1.992188 4.648438 -2.203125 4.484375 -2.359375 C 4.328125 -2.523438 4.128906 -2.648438 3.890625 -2.734375 C 3.648438 -2.828125 3.320312 -2.921875 2.90625 -3.015625 C 2.40625 -3.148438 2.003906 -3.273438 1.703125 -3.390625 C 1.398438 -3.503906 1.140625 -3.679688 0.921875 -3.921875 C 0.710938 -4.171875 0.609375 -4.503906 0.609375 -4.921875 C 0.609375 -5.253906 0.695312 -5.554688 0.875 -5.828125 C 1.050781 -6.109375 1.320312 -6.332031 1.6875 -6.5 C 2.0625 -6.664062 2.523438 -6.75 3.078125 -6.75 C 3.460938 -6.75 3.835938 -6.695312 4.203125 -6.59375 C 4.566406 -6.488281 4.882812 -6.34375 5.15625 -6.15625 L 4.921875 -5.59375 C 4.640625 -5.78125 4.335938 -5.921875 4.015625 -6.015625 C 3.691406 -6.109375 3.378906 -6.15625 3.078125 -6.15625 C 2.492188 -6.15625 2.050781 -6.039062 1.75 -5.8125 C 1.457031 -5.582031 1.3125 -5.289062 1.3125 -4.9375 C 1.3125 -4.664062 1.390625 -4.445312 1.546875 -4.28125 C 1.710938 -4.125 1.914062 -4 2.15625 -3.90625 C 2.40625 -3.820312 2.738281 -3.734375 3.15625 -3.640625 C 3.644531 -3.515625 4.039062 -3.390625 4.34375 -3.265625 C 4.644531 -3.148438 4.898438 -2.972656 5.109375 -2.734375 C 5.328125 -2.492188 5.4375 -2.171875 5.4375 -1.765625 C 5.4375 -1.429688 5.34375 -1.125 5.15625 -0.84375 C 4.976562 -0.570312 4.703125 -0.351562 4.328125 -0.1875 C 3.953125 -0.0195312 3.488281 0.0625 2.9375 0.0625 Z M 2.9375 0.0625 "/></g></g></g><g fill="#ff6100" fill-opacity="1"><g transform="translate(268.363306, 253.811028)"><g><path d="M 2.390625 -6.078125 L 0.03125 -6.078125 L 0.03125 -6.6875 L 5.453125 -6.6875 L 5.453125 -6.078125 L 3.09375 -6.078125 L 3.09375 0 L 2.390625 0 Z M 2.390625 -6.078125 "/></g></g></g><g fill="#ff6100" fill-opacity="1"><g transform="translate(276.829977, 253.811028)"><g><path d="M 4.015625 0.0625 C 3.347656 0.0625 2.742188 -0.0820312 2.203125 -0.375 C 1.671875 -0.675781 1.253906 -1.082031 0.953125 -1.59375 C 0.648438 -2.113281 0.5 -2.695312 0.5 -3.34375 C 0.5 -3.988281 0.648438 -4.566406 0.953125 -5.078125 C 1.253906 -5.597656 1.671875 -6.003906 2.203125 -6.296875 C 2.742188 -6.597656 3.347656 -6.75 4.015625 -6.75 C 4.679688 -6.75 5.28125 -6.601562 5.8125 -6.3125 C 6.34375 -6.019531 6.757812 -5.613281 7.0625 -5.09375 C 7.375 -4.570312 7.53125 -3.988281 7.53125 -3.34375 C 7.53125 -2.695312 7.375 -2.113281 7.0625 -1.59375 C 6.757812 -1.082031 6.34375 -0.675781 5.8125 -0.375 C 5.28125 -0.0820312 4.679688 0.0625 4.015625 0.0625 Z M 4.015625 -0.578125 C 4.546875 -0.578125 5.023438 -0.695312 5.453125 -0.9375 C 5.878906 -1.175781 6.210938 -1.503906 6.453125 -1.921875 C 6.691406 -2.347656 6.8125 -2.820312 6.8125 -3.34375 C 6.8125 -3.863281 6.691406 -4.335938 6.453125 -4.765625 C 6.210938 -5.191406 5.878906 -5.523438 5.453125 -5.765625 C 5.023438 -6.003906 4.546875 -6.125 4.015625 -6.125 C 3.484375 -6.125 3.003906 -6.003906 2.578125 -5.765625 C 2.148438 -5.523438 1.8125 -5.191406 1.5625 -4.765625 C 1.3125 -4.335938 1.1875 -3.863281 1.1875 -3.34375 C 1.1875 -2.820312 1.3125 -2.347656 1.5625 -1.921875 C 1.8125 -1.503906 2.148438 -1.175781 2.578125 -0.9375 C 3.003906 -0.695312 3.484375 -0.578125 4.015625 -0.578125 Z M 4.015625 -0.578125 "/></g></g></g><g fill="#ff6100" fill-opacity="1"><g transform="translate(287.830689, 253.811028)"><g><path d="M 5.65625 0 L 4.125 -2.15625 C 3.957031 -2.132812 3.78125 -2.125 3.59375 -2.125 L 1.796875 -2.125 L 1.796875 0 L 1.09375 0 L 1.09375 -6.6875 L 3.59375 -6.6875 C 4.445312 -6.6875 5.113281 -6.484375 5.59375 -6.078125 C 6.082031 -5.671875 6.328125 -5.113281 6.328125 -4.40625 C 6.328125 -3.875 6.191406 -3.425781 5.921875 -3.0625 C 5.660156 -2.707031 5.285156 -2.453125 4.796875 -2.296875 L 6.4375 0 Z M 3.578125 -2.71875 C 4.242188 -2.71875 4.75 -2.863281 5.09375 -3.15625 C 5.445312 -3.457031 5.625 -3.875 5.625 -4.40625 C 5.625 -4.945312 5.445312 -5.359375 5.09375 -5.640625 C 4.75 -5.929688 4.242188 -6.078125 3.578125 -6.078125 L 1.796875 -6.078125 L 1.796875 -2.71875 Z M 3.578125 -2.71875 "/></g></g></g><g fill="#ff6100" fill-opacity="1"><g transform="translate(297.722161, 253.811028)"><g><path d="M 5.828125 -0.609375 L 5.828125 0 L 1.09375 0 L 1.09375 -6.6875 L 5.6875 -6.6875 L 5.6875 -6.078125 L 1.796875 -6.078125 L 1.796875 -3.703125 L 5.265625 -3.703125 L 5.265625 -3.09375 L 1.796875 -3.09375 L 1.796875 -0.609375 Z M 5.828125 -0.609375 "/></g></g></g><g clip-path="url(#db9694b3f3)"><path fill="#000000" d="M 278.226562 223.949219 L 171.074219 223.949219 L 145.449219 145.199219 L 114.03125 145.199219 L 114.03125 135.019531 L 152.84375 135.019531 L 178.46875 213.769531 L 278.226562 213.769531 Z M 278.226562 223.949219 " fill-opacity="1" fill-rule="nonzero"/></g><g clip-path="url(#5424d02347)"><path fill="#000000" d="M 204.90625 231.023438 C 204.90625 231.597656 204.847656 232.167969 204.738281 232.734375 C 204.625 233.300781 204.457031 233.847656 204.238281 234.382812 C 204.015625 234.914062 203.746094 235.417969 203.425781 235.898438 C 203.105469 236.378906 202.742188 236.820312 202.335938 237.226562 C 201.925781 237.636719 201.484375 238 201.003906 238.320312 C 200.523438 238.640625 200.019531 238.910156 199.484375 239.128906 C 198.953125 239.351562 198.40625 239.519531 197.839844 239.628906 C 197.273438 239.742188 196.703125 239.796875 196.125 239.800781 C 195.550781 239.796875 194.980469 239.742188 194.414062 239.628906 C 193.847656 239.519531 193.300781 239.351562 192.765625 239.128906 C 192.234375 238.910156 191.726562 238.640625 191.25 238.320312 C 190.769531 238 190.328125 237.636719 189.917969 237.226562 C 189.511719 236.820312 189.148438 236.378906 188.828125 235.898438 C 188.507812 235.417969 188.234375 234.914062 188.015625 234.382812 C 187.796875 233.847656 187.628906 233.300781 187.515625 232.734375 C 187.402344 232.167969 187.347656 231.597656 187.347656 231.023438 C 187.347656 230.445312 187.402344 229.875 187.515625 229.308594 C 187.628906 228.746094 187.796875 228.195312 188.015625 227.664062 C 188.234375 227.132812 188.507812 226.625 188.828125 226.148438 C 189.148438 225.667969 189.511719 225.222656 189.917969 224.816406 C 190.328125 224.410156 190.769531 224.046875 191.25 223.726562 C 191.726562 223.40625 192.234375 223.132812 192.765625 222.914062 C 193.300781 222.695312 193.847656 222.527344 194.414062 222.414062 C 194.980469 222.300781 195.550781 222.246094 196.125 222.246094 C 196.703125 222.246094 197.273438 222.300781 197.839844 222.414062 C 198.40625 222.527344 198.953125 222.695312 199.484375 222.914062 C 200.019531 223.132812 200.523438 223.40625 201.003906 223.726562 C 201.484375 224.046875 201.925781 224.410156 202.335938 224.816406 C 202.742188 225.222656 203.105469 225.667969 203.425781 226.148438 C 203.746094 226.625 204.015625 227.132812 204.238281 227.664062 C 204.457031 228.195312 204.625 228.746094 204.738281 229.308594 C 204.847656 229.875 204.90625 230.445312 204.90625 231.023438 Z M 204.90625 231.023438 " fill-opacity="1" fill-rule="nonzero"/></g><g clip-path="url(#c30f94bad4)"><path fill="#000000" d="M 262.515625 231.023438 C 262.515625 231.597656 262.457031 232.167969 262.347656 232.734375 C 262.234375 233.300781 262.066406 233.847656 261.847656 234.382812 C 261.625 234.914062 261.355469 235.417969 261.035156 235.898438 C 260.714844 236.378906 260.351562 236.820312 259.941406 237.226562 C 259.535156 237.636719 259.09375 238 258.613281 238.320312 C 258.132812 238.640625 257.628906 238.910156 257.09375 239.128906 C 256.5625 239.351562 256.011719 239.519531 255.449219 239.628906 C 254.882812 239.742188 254.3125 239.796875 253.734375 239.800781 C 253.160156 239.796875 252.589844 239.742188 252.023438 239.628906 C 251.457031 239.519531 250.910156 239.351562 250.375 239.128906 C 249.84375 238.910156 249.335938 238.640625 248.859375 238.320312 C 248.378906 238 247.933594 237.636719 247.527344 237.226562 C 247.121094 236.820312 246.757812 236.378906 246.4375 235.898438 C 246.117188 235.417969 245.84375 234.914062 245.625 234.382812 C 245.402344 233.847656 245.238281 233.300781 245.125 232.734375 C 245.011719 232.167969 244.957031 231.597656 244.957031 231.023438 C 244.957031 230.445312 245.011719 229.875 245.125 229.308594 C 245.238281 228.746094 245.402344 228.195312 245.625 227.664062 C 245.84375 227.132812 246.117188 226.625 246.4375 226.148438 C 246.757812 225.667969 247.121094 225.222656 247.527344 224.816406 C 247.933594 224.410156 248.378906 224.046875 248.859375 223.726562 C 249.335938 223.40625 249.84375 223.132812 250.375 222.914062 C 250.910156 222.695312 251.457031 222.527344 252.023438 222.414062 C 252.589844 222.300781 253.160156 222.246094 253.734375 222.246094 C 254.3125 222.246094 254.882812 222.300781 255.449219 222.414062 C 256.011719 222.527344 256.5625 222.695312 257.09375 222.914062 C 257.628906 223.132812 258.132812 223.40625 258.613281 223.726562 C 259.09375 224.046875 259.535156 224.410156 259.941406 224.816406 C 260.351562 225.222656 260.714844 225.667969 261.035156 226.148438 C 261.355469 226.625 261.625 227.132812 261.847656 227.664062 C 262.066406 228.195312 262.234375 228.746094 262.347656 229.308594 C 262.457031 229.875 262.515625 230.445312 262.515625 231.023438 Z M 262.515625 231.023438 " fill-opacity="1" fill-rule="nonzero"/></g><path fill="#000000" d="M 222.289062 201.773438 C 222.289062 202.203125 222.246094 202.628906 222.164062 203.050781 C 222.078125 203.46875 221.953125 203.878906 221.789062 204.277344 C 221.625 204.671875 221.425781 205.050781 221.183594 205.40625 C 220.945312 205.765625 220.675781 206.097656 220.371094 206.398438 C 220.066406 206.703125 219.738281 206.976562 219.378906 207.214844 C 219.023438 207.453125 218.644531 207.652344 218.246094 207.816406 C 217.851562 207.984375 217.441406 208.105469 217.019531 208.191406 C 216.597656 208.273438 216.171875 208.316406 215.742188 208.316406 C 215.3125 208.316406 214.886719 208.273438 214.464844 208.191406 C 214.042969 208.105469 213.636719 207.984375 213.238281 207.816406 C 212.839844 207.652344 212.464844 207.453125 212.105469 207.214844 C 211.75 206.976562 211.417969 206.703125 211.113281 206.398438 C 210.808594 206.097656 210.539062 205.765625 210.300781 205.40625 C 210.0625 205.050781 209.859375 204.671875 209.695312 204.277344 C 209.53125 203.878906 209.40625 203.46875 209.324219 203.050781 C 209.238281 202.628906 209.195312 202.203125 209.195312 201.773438 C 209.195312 201.34375 209.238281 200.917969 209.324219 200.496094 C 209.40625 200.074219 209.53125 199.664062 209.695312 199.269531 C 209.859375 198.871094 210.0625 198.496094 210.300781 198.136719 C 210.539062 197.78125 210.808594 197.449219 211.113281 197.144531 C 211.417969 196.839844 211.75 196.570312 212.105469 196.332031 C 212.464844 196.09375 212.839844 195.890625 213.238281 195.726562 C 213.636719 195.5625 214.042969 195.4375 214.464844 195.355469 C 214.886719 195.269531 215.3125 195.230469 215.742188 195.230469 C 216.171875 195.230469 216.597656 195.269531 217.019531 195.355469 C 217.441406 195.4375 217.851562 195.5625 218.246094 195.726562 C 218.644531 195.890625 219.023438 196.09375 219.378906 196.332031 C 219.738281 196.570312 220.066406 196.839844 220.371094 197.144531 C 220.675781 197.449219 220.945312 197.78125 221.183594 198.136719 C 221.425781 198.496094 221.625 198.871094 221.789062 199.269531 C 221.953125 199.664062 222.078125 200.074219 222.164062 200.496094 C 222.246094 200.917969 222.289062 201.34375 222.289062 201.773438 Z M 222.289062 201.773438 " fill-opacity="1" fill-rule="nonzero"/><path fill="#000000" d="M 267.160156 166.015625 C 266.167969 166.011719 265.273438 165.722656 264.46875 165.136719 C 240.675781 147.765625 210.332031 144.230469 176.722656 154.917969 C 176.433594 155.007812 176.144531 155.070312 175.84375 155.101562 C 175.546875 155.136719 175.25 155.140625 174.949219 155.117188 C 174.652344 155.089844 174.359375 155.035156 174.070312 154.953125 C 173.78125 154.871094 173.503906 154.757812 173.238281 154.621094 C 172.972656 154.484375 172.722656 154.320312 172.488281 154.132812 C 172.253906 153.945312 172.039062 153.738281 171.847656 153.511719 C 171.652344 153.28125 171.484375 153.035156 171.339844 152.773438 C 171.195312 152.511719 171.078125 152.234375 170.988281 151.949219 C 170.894531 151.664062 170.832031 151.375 170.800781 151.074219 C 170.765625 150.777344 170.761719 150.480469 170.789062 150.179688 C 170.8125 149.882812 170.867188 149.589844 170.949219 149.300781 C 171.035156 149.011719 171.144531 148.734375 171.28125 148.46875 C 171.421875 148.203125 171.582031 147.953125 171.769531 147.71875 C 171.957031 147.484375 172.164062 147.273438 172.394531 147.078125 C 172.625 146.886719 172.871094 146.714844 173.132812 146.570312 C 173.394531 146.425781 173.667969 146.308594 173.953125 146.21875 C 191.988281 140.484375 209.355469 138.550781 225.574219 140.476562 C 241.90625 142.414062 256.808594 148.234375 269.867188 157.765625 C 270.257812 158.046875 270.59375 158.386719 270.875 158.777344 C 271.15625 159.164062 271.371094 159.589844 271.519531 160.046875 C 271.667969 160.507812 271.742188 160.976562 271.742188 161.457031 C 271.742188 161.941406 271.664062 162.410156 271.515625 162.867188 C 271.367188 163.324219 271.148438 163.75 270.867188 164.136719 C 270.582031 164.527344 270.246094 164.863281 269.855469 165.144531 C 269.464844 165.429688 269.039062 165.644531 268.582031 165.792969 C 268.121094 165.941406 267.652344 166.015625 267.171875 166.015625 Z M 267.160156 166.015625 " fill-opacity="1" fill-rule="nonzero"/><path fill="#000000" d="M 248.929688 180.121094 C 247.9375 180.125 247.042969 179.832031 246.242188 179.246094 C 229.710938 167.171875 213.402344 165.289062 189.945312 172.746094 C 189.660156 172.839844 189.367188 172.898438 189.070312 172.933594 C 188.773438 172.96875 188.472656 172.972656 188.175781 172.945312 C 187.875 172.921875 187.582031 172.867188 187.296875 172.78125 C 187.007812 172.699219 186.730469 172.589844 186.464844 172.453125 C 186.199219 172.3125 185.949219 172.152344 185.714844 171.964844 C 185.480469 171.777344 185.265625 171.570312 185.070312 171.339844 C 184.878906 171.109375 184.710938 170.863281 184.566406 170.601562 C 184.421875 170.339844 184.300781 170.066406 184.210938 169.78125 C 184.121094 169.496094 184.058594 169.203125 184.023438 168.90625 C 183.992188 168.609375 183.988281 168.308594 184.011719 168.011719 C 184.039062 167.710938 184.09375 167.417969 184.175781 167.132812 C 184.257812 166.84375 184.371094 166.566406 184.507812 166.300781 C 184.644531 166.035156 184.808594 165.785156 184.996094 165.550781 C 185.183594 165.316406 185.390625 165.101562 185.617188 164.910156 C 185.847656 164.714844 186.09375 164.546875 186.355469 164.402344 C 186.617188 164.257812 186.894531 164.140625 187.179688 164.046875 C 200.414062 159.835938 211.90625 158.429688 222.296875 159.71875 C 232.589844 160.996094 242.183594 164.976562 251.644531 171.878906 C 252.035156 172.164062 252.371094 172.5 252.652344 172.890625 C 252.9375 173.28125 253.152344 173.707031 253.296875 174.164062 C 253.445312 174.621094 253.519531 175.09375 253.519531 175.574219 C 253.519531 176.054688 253.441406 176.527344 253.292969 176.984375 C 253.144531 177.441406 252.925781 177.867188 252.644531 178.253906 C 252.359375 178.644531 252.023438 178.980469 251.632812 179.261719 C 251.242188 179.542969 250.816406 179.761719 250.359375 179.910156 C 249.902344 180.054688 249.429688 180.128906 248.949219 180.128906 Z M 248.929688 180.121094 " fill-opacity="1" fill-rule="nonzero"/><path fill="#000000" d="M 234.859375 194.789062 C 233.867188 194.792969 232.972656 194.5 232.171875 193.914062 C 222.214844 186.640625 214.140625 185.683594 200.171875 190.128906 C 199.886719 190.21875 199.59375 190.28125 199.296875 190.3125 C 199 190.347656 198.699219 190.351562 198.402344 190.328125 C 198.101562 190.300781 197.808594 190.246094 197.523438 190.164062 C 197.234375 190.082031 196.957031 189.96875 196.691406 189.832031 C 196.425781 189.695312 196.171875 189.53125 195.9375 189.34375 C 195.707031 189.15625 195.492188 188.949219 195.296875 188.722656 C 195.105469 188.492188 194.9375 188.246094 194.789062 187.984375 C 194.644531 187.722656 194.527344 187.445312 194.4375 187.160156 C 194.347656 186.875 194.285156 186.585938 194.25 186.285156 C 194.21875 185.988281 194.214844 185.691406 194.238281 185.390625 C 194.265625 185.09375 194.320312 184.800781 194.402344 184.511719 C 194.484375 184.222656 194.59375 183.945312 194.734375 183.679688 C 194.871094 183.414062 195.035156 183.164062 195.21875 182.929688 C 195.40625 182.695312 195.617188 182.480469 195.84375 182.289062 C 196.074219 182.097656 196.320312 181.925781 196.582031 181.78125 C 196.84375 181.636719 197.117188 181.519531 197.40625 181.429688 C 214.023438 176.164062 225.28125 177.566406 237.558594 186.539062 C 237.945312 186.824219 238.28125 187.160156 238.5625 187.550781 C 238.847656 187.941406 239.0625 188.367188 239.210938 188.824219 C 239.359375 189.28125 239.429688 189.753906 239.429688 190.234375 C 239.429688 190.714844 239.355469 191.1875 239.203125 191.644531 C 239.054688 192.101562 238.839844 192.523438 238.554688 192.914062 C 238.269531 193.304688 237.933594 193.640625 237.542969 193.921875 C 237.152344 194.203125 236.730469 194.421875 236.269531 194.570312 C 235.8125 194.714844 235.34375 194.789062 234.859375 194.789062 Z M 234.859375 194.789062 " fill-opacity="1" fill-rule="nonzero"/><path fill="#000000" d="M 108.523438 170.515625 L 141.199219 170.515625 C 141.679688 170.515625 142.136719 170.605469 142.578125 170.789062 C 143.019531 170.972656 143.410156 171.230469 143.75 171.570312 C 144.085938 171.90625 144.347656 172.296875 144.53125 172.738281 C 144.710938 173.179688 144.804688 173.640625 144.804688 174.117188 L 144.804688 174.300781 C 144.804688 174.78125 144.710938 175.238281 144.53125 175.679688 C 144.347656 176.121094 144.085938 176.511719 143.75 176.847656 C 143.410156 177.1875 143.019531 177.445312 142.578125 177.628906 C 142.136719 177.8125 141.679688 177.902344 141.199219 177.902344 L 108.523438 177.902344 C 108.046875 177.902344 107.585938 177.8125 107.144531 177.628906 C 106.703125 177.445312 106.316406 177.1875 105.976562 176.847656 C 105.640625 176.511719 105.378906 176.121094 105.195312 175.679688 C 105.011719 175.238281 104.921875 174.78125 104.921875 174.300781 L 104.921875 174.117188 C 104.921875 173.640625 105.011719 173.179688 105.195312 172.738281 C 105.378906 172.296875 105.640625 171.90625 105.976562 171.570312 C 106.316406 171.230469 106.703125 170.972656 107.144531 170.789062 C 107.585938 170.605469 108.046875 170.515625 108.523438 170.515625 Z M 108.523438 170.515625 " fill-opacity="1" fill-rule="nonzero"/><path fill="#000000" d="M 90.3125 197.308594 L 126.355469 197.308594 C 126.835938 197.308594 127.292969 197.398438 127.734375 197.582031 C 128.175781 197.765625 128.566406 198.023438 128.90625 198.363281 C 129.242188 198.699219 129.503906 199.089844 129.6875 199.53125 C 129.867188 199.972656 129.960938 200.429688 129.960938 200.910156 L 129.960938 201.09375 C 129.960938 201.574219 129.867188 202.03125 129.6875 202.472656 C 129.503906 202.914062 129.242188 203.304688 128.90625 203.640625 C 128.566406 203.980469 128.175781 204.238281 127.734375 204.421875 C 127.292969 204.605469 126.835938 204.695312 126.355469 204.695312 L 90.3125 204.695312 C 89.835938 204.695312 89.375 204.605469 88.933594 204.421875 C 88.492188 204.238281 88.101562 203.980469 87.765625 203.640625 C 87.425781 203.304688 87.167969 202.914062 86.984375 202.472656 C 86.800781 202.03125 86.710938 201.574219 86.710938 201.09375 L 86.710938 200.910156 C 86.710938 200.429688 86.800781 199.972656 86.984375 199.53125 C 87.167969 199.089844 87.425781 198.699219 87.765625 198.363281 C 88.101562 198.023438 88.492188 197.765625 88.933594 197.582031 C 89.375 197.398438 89.835938 197.308594 90.3125 197.308594 Z M 90.3125 197.308594 " fill-opacity="1" fill-rule="nonzero"/><g clip-path="url(#e973ff1837)"><path fill="#000000" d="M 84.582031 184.046875 L 107.058594 184.046875 C 107.539062 184.046875 107.996094 184.140625 108.4375 184.320312 C 108.878906 184.503906 109.269531 184.765625 109.609375 185.101562 C 109.945312 185.441406 110.207031 185.828125 110.390625 186.269531 C 110.570312 186.710938 110.664062 187.171875 110.664062 187.648438 L 110.664062 187.835938 C 110.664062 188.3125 110.570312 188.773438 110.390625 189.214844 C 110.207031 189.65625 109.945312 190.042969 109.609375 190.382812 C 109.269531 190.71875 108.878906 190.980469 108.4375 191.164062 C 107.996094 191.347656 107.539062 191.4375 107.058594 191.4375 L 84.582031 191.4375 C 84.105469 191.4375 83.644531 191.347656 83.203125 191.164062 C 82.761719 190.980469 82.371094 190.71875 82.035156 190.382812 C 81.695312 190.042969 81.4375 189.65625 81.253906 189.214844 C 81.070312 188.773438 80.980469 188.3125 80.980469 187.835938 L 80.980469 187.648438 C 80.980469 187.171875 81.070312 186.710938 81.253906 186.269531 C 81.4375 185.828125 81.695312 185.441406 82.035156 185.101562 C 82.371094 184.765625 82.761719 184.503906 83.203125 184.320312 C 83.644531 184.140625 84.105469 184.046875 84.582031 184.046875 Z M 84.582031 184.046875 " fill-opacity="1" fill-rule="nonzero"/></g><path fill="#000000" d="M 118.722656 184.046875 L 141.199219 184.046875 C 141.679688 184.046875 142.136719 184.140625 142.578125 184.320312 C 143.019531 184.503906 143.410156 184.765625 143.75 185.101562 C 144.085938 185.441406 144.347656 185.828125 144.53125 186.269531 C 144.710938 186.710938 144.804688 187.171875 144.804688 187.648438 L 144.804688 187.835938 C 144.804688 188.3125 144.710938 188.773438 144.53125 189.214844 C 144.347656 189.65625 144.085938 190.042969 143.75 190.382812 C 143.410156 190.71875 143.019531 190.980469 142.578125 191.164062 C 142.136719 191.347656 141.679688 191.4375 141.199219 191.4375 L 118.722656 191.4375 C 118.246094 191.4375 117.785156 191.347656 117.34375 191.164062 C 116.902344 190.980469 116.511719 190.71875 116.175781 190.382812 C 115.835938 190.042969 115.578125 189.65625 115.394531 189.214844 C 115.210938 188.773438 115.121094 188.3125 115.121094 187.835938 L 115.121094 187.648438 C 115.121094 187.171875 115.210938 186.710938 115.394531 186.269531 C 115.578125 185.828125 115.835938 185.441406 116.175781 185.101562 C 116.511719 184.765625 116.902344 184.503906 117.34375 184.320312 C 117.785156 184.140625 118.246094 184.046875 118.722656 184.046875 Z M 118.722656 184.046875 " fill-opacity="1" fill-rule="nonzero"/><path fill="#000000" d="M 137.328125 197.308594 L 144.566406 197.308594 C 145.046875 197.308594 145.503906 197.398438 145.945312 197.582031 C 146.386719 197.765625 146.777344 198.023438 147.117188 198.363281 C 147.453125 198.699219 147.714844 199.089844 147.898438 199.53125 C 148.078125 199.972656 148.171875 200.429688 148.171875 200.910156 L 148.171875 201.09375 C 148.171875 201.574219 148.078125 202.03125 147.898438 202.472656 C 147.714844 202.914062 147.453125 203.304688 147.117188 203.640625 C 146.777344 203.980469 146.386719 204.238281 145.945312 204.421875 C 145.503906 204.605469 145.046875 204.695312 144.566406 204.695312 L 137.328125 204.695312 C 136.847656 204.695312 136.390625 204.605469 135.949219 204.421875 C 135.507812 204.238281 135.117188 203.980469 134.78125 203.640625 C 134.441406 203.304688 134.179688 202.914062 134 202.472656 C 133.816406 202.03125 133.722656 201.574219 133.722656 201.09375 L 133.722656 200.910156 C 133.722656 200.429688 133.816406 199.972656 134 199.53125 C 134.179688 199.089844 134.441406 198.699219 134.78125 198.363281 C 135.117188 198.023438 135.507812 197.765625 135.949219 197.582031 C 136.390625 197.398438 136.847656 197.308594 137.328125 197.308594 Z M 137.328125 197.308594 " fill-opacity="1" fill-rule="nonzero"/><path fill="#000000" d="M 88.285156 170.515625 L 95.527344 170.515625 C 96.003906 170.515625 96.464844 170.605469 96.90625 170.789062 C 97.347656 170.972656 97.738281 171.230469 98.074219 171.570312 C 98.414062 171.90625 98.675781 172.296875 98.855469 172.738281 C 99.039062 173.179688 99.132812 173.640625 99.132812 174.117188 L 99.132812 174.300781 C 99.132812 174.78125 99.039062 175.238281 98.855469 175.679688 C 98.675781 176.121094 98.414062 176.511719 98.074219 176.847656 C 97.738281 177.1875 97.347656 177.445312 96.90625 177.628906 C 96.464844 177.8125 96.003906 177.902344 95.527344 177.902344 L 88.285156 177.902344 C 87.808594 177.902344 87.347656 177.8125 86.90625 177.628906 C 86.464844 177.445312 86.078125 177.1875 85.738281 176.847656 C 85.402344 176.511719 85.140625 176.121094 84.957031 175.679688 C 84.777344 175.238281 84.683594 174.78125 84.683594 174.300781 L 84.683594 174.117188 C 84.683594 173.640625 84.777344 173.179688 84.957031 172.738281 C 85.140625 172.296875 85.402344 171.90625 85.738281 171.570312 C 86.078125 171.230469 86.464844 170.972656 86.90625 170.789062 C 87.347656 170.605469 87.808594 170.515625 88.285156 170.515625 Z M 88.285156 170.515625 " fill-opacity="1" fill-rule="nonzero"/></svg>