<svg xmlns="http://www.w3.org/2000/svg" xmlns:xlink="http://www.w3.org/1999/xlink" width="500" zoomAndPan="magnify" viewBox="0 0 375 374.999991" height="500" preserveAspectRatio="xMidYMid meet" version="1.0"><defs><g/><clipPath id="764c45b063"><path d="M 121 113.417969 L 285.996094 113.417969 L 285.996094 203 L 121 203 Z M 121 113.417969 " clip-rule="nonzero"/></clipPath><clipPath id="a125ac4ef4"><path d="M 195 200 L 213 200 L 213 218.417969 L 195 218.417969 Z M 195 200 " clip-rule="nonzero"/></clipPath><clipPath id="1aea5621f0"><path d="M 252 200 L 271 200 L 271 218.417969 L 252 218.417969 Z M 252 200 " clip-rule="nonzero"/></clipPath><clipPath id="84cc17db57"><path d="M 88.746094 162 L 119 162 L 119 170 L 88.746094 170 Z M 88.746094 162 " clip-rule="nonzero"/></clipPath></defs><rect x="-37.5" width="450" fill="#ffffff" y="-37.499999" height="449.999989" fill-opacity="1"/><rect x="-37.5" width="450" fill="#ffffff" y="-37.499999" height="449.999989" fill-opacity="1"/><rect x="-37.5" width="450" fill="#000000" y="-37.499999" height="449.999989" fill-opacity="1"/><g fill="#ffffff" fill-opacity="1"><g transform="translate(122.909258, 211.070977)"><g><path d="M 14.109375 0 L 7.515625 -9.21875 L 7.515625 0 L 1.671875 0 L 1.671875 -21.03125 L 7.515625 -21.03125 L 7.515625 -11.96875 L 14.046875 -21.03125 L 20.796875 -21.03125 L 13.0625 -10.828125 L 21.171875 0 Z M 14.109375 0 "/></g></g></g><g fill="#ffffff" fill-opacity="1"><g transform="translate(144.561626, 211.070977)"><g><path d="M 9.609375 0.203125 C 7.160156 0.203125 5.148438 -0.375 3.578125 -1.53125 C 2.003906 -2.695312 1.160156 -4.363281 1.046875 -6.53125 L 7.28125 -6.53125 C 7.34375 -5.789062 7.5625 -5.253906 7.9375 -4.921875 C 8.3125 -4.585938 8.796875 -4.421875 9.390625 -4.421875 C 9.929688 -4.421875 10.375 -4.550781 10.71875 -4.8125 C 11.070312 -5.082031 11.25 -5.457031 11.25 -5.9375 C 11.25 -6.550781 10.957031 -7.023438 10.375 -7.359375 C 9.800781 -7.703125 8.867188 -8.082031 7.578125 -8.5 C 6.203125 -8.957031 5.09375 -9.398438 4.25 -9.828125 C 3.40625 -10.253906 2.671875 -10.878906 2.046875 -11.703125 C 1.421875 -12.535156 1.109375 -13.613281 1.109375 -14.9375 C 1.109375 -16.289062 1.441406 -17.445312 2.109375 -18.40625 C 2.785156 -19.375 3.722656 -20.109375 4.921875 -20.609375 C 6.117188 -21.109375 7.472656 -21.359375 8.984375 -21.359375 C 11.421875 -21.359375 13.367188 -20.785156 14.828125 -19.640625 C 16.296875 -18.492188 17.082031 -16.890625 17.1875 -14.828125 L 10.828125 -14.828125 C 10.804688 -15.460938 10.609375 -15.9375 10.234375 -16.25 C 9.867188 -16.570312 9.398438 -16.734375 8.828125 -16.734375 C 8.390625 -16.734375 8.03125 -16.601562 7.75 -16.34375 C 7.476562 -16.082031 7.34375 -15.710938 7.34375 -15.234375 C 7.34375 -14.835938 7.492188 -14.492188 7.796875 -14.203125 C 8.109375 -13.921875 8.492188 -13.675781 8.953125 -13.46875 C 9.410156 -13.257812 10.085938 -12.992188 10.984375 -12.671875 C 12.304688 -12.210938 13.398438 -11.757812 14.265625 -11.3125 C 15.128906 -10.875 15.875 -10.25 16.5 -9.4375 C 17.132812 -8.632812 17.453125 -7.617188 17.453125 -6.390625 C 17.453125 -5.128906 17.132812 -4 16.5 -3 C 15.875 -2.007812 14.96875 -1.226562 13.78125 -0.65625 C 12.601562 -0.0820312 11.210938 0.203125 9.609375 0.203125 Z M 9.609375 0.203125 "/></g></g></g><g fill="#ff6100" fill-opacity="1"><g transform="translate(124.184118, 235.735825)"><g><path d="M 3.390625 -2.3125 L 3.390625 0 L 2.6875 0 L 2.6875 -2.3125 L 0.015625 -6.6875 L 0.765625 -6.6875 L 3.0625 -2.9375 L 5.359375 -6.6875 L 6.0625 -6.6875 Z M 3.390625 -2.3125 "/></g></g></g><g fill="#ff6100" fill-opacity="1"><g transform="translate(133.234094, 235.735825)"><g><path d="M 4.015625 0.0625 C 3.347656 0.0625 2.742188 -0.0820312 2.203125 -0.375 C 1.671875 -0.675781 1.253906 -1.082031 0.953125 -1.59375 C 0.648438 -2.113281 0.5 -2.695312 0.5 -3.34375 C 0.5 -3.988281 0.648438 -4.566406 0.953125 -5.078125 C 1.253906 -5.597656 1.671875 -6.003906 2.203125 -6.296875 C 2.742188 -6.597656 3.347656 -6.75 4.015625 -6.75 C 4.679688 -6.75 5.28125 -6.601562 5.8125 -6.3125 C 6.34375 -6.019531 6.757812 -5.613281 7.0625 -5.09375 C 7.375 -4.570312 7.53125 -3.988281 7.53125 -3.34375 C 7.53125 -2.695312 7.375 -2.113281 7.0625 -1.59375 C 6.757812 -1.082031 6.34375 -0.675781 5.8125 -0.375 C 5.28125 -0.0820312 4.679688 0.0625 4.015625 0.0625 Z M 4.015625 -0.578125 C 4.546875 -0.578125 5.023438 -0.695312 5.453125 -0.9375 C 5.878906 -1.175781 6.210938 -1.503906 6.453125 -1.921875 C 6.691406 -2.347656 6.8125 -2.820312 6.8125 -3.34375 C 6.8125 -3.863281 6.691406 -4.335938 6.453125 -4.765625 C 6.210938 -5.191406 5.878906 -5.523438 5.453125 -5.765625 C 5.023438 -6.003906 4.546875 -6.125 4.015625 -6.125 C 3.484375 -6.125 3.003906 -6.003906 2.578125 -5.765625 C 2.148438 -5.523438 1.8125 -5.191406 1.5625 -4.765625 C 1.3125 -4.335938 1.1875 -3.863281 1.1875 -3.34375 C 1.1875 -2.820312 1.3125 -2.347656 1.5625 -1.921875 C 1.8125 -1.503906 2.148438 -1.175781 2.578125 -0.9375 C 3.003906 -0.695312 3.484375 -0.578125 4.015625 -0.578125 Z M 4.015625 -0.578125 "/></g></g></g><g fill="#ff6100" fill-opacity="1"><g transform="translate(144.234806, 235.735825)"><g><path d="M 3.78125 0.0625 C 2.914062 0.0625 2.238281 -0.1875 1.75 -0.6875 C 1.269531 -1.1875 1.03125 -1.910156 1.03125 -2.859375 L 1.03125 -6.6875 L 1.734375 -6.6875 L 1.734375 -2.890625 C 1.734375 -2.109375 1.910156 -1.523438 2.265625 -1.140625 C 2.617188 -0.765625 3.125 -0.578125 3.78125 -0.578125 C 4.457031 -0.578125 4.96875 -0.765625 5.3125 -1.140625 C 5.664062 -1.523438 5.84375 -2.109375 5.84375 -2.890625 L 5.84375 -6.6875 L 6.53125 -6.6875 L 6.53125 -2.859375 C 6.53125 -1.910156 6.289062 -1.1875 5.8125 -0.6875 C 5.332031 -0.1875 4.65625 0.0625 3.78125 0.0625 Z M 3.78125 0.0625 "/></g></g></g><g fill="#ff6100" fill-opacity="1"><g transform="translate(154.786087, 235.735825)"><g><path d="M 5.65625 0 L 4.125 -2.15625 C 3.957031 -2.132812 3.78125 -2.125 3.59375 -2.125 L 1.796875 -2.125 L 1.796875 0 L 1.09375 0 L 1.09375 -6.6875 L 3.59375 -6.6875 C 4.445312 -6.6875 5.113281 -6.484375 5.59375 -6.078125 C 6.082031 -5.671875 6.328125 -5.113281 6.328125 -4.40625 C 6.328125 -3.875 6.191406 -3.425781 5.921875 -3.0625 C 5.660156 -2.707031 5.285156 -2.453125 4.796875 -2.296875 L 6.4375 0 Z M 3.578125 -2.71875 C 4.242188 -2.71875 4.75 -2.863281 5.09375 -3.15625 C 5.445312 -3.457031 5.625 -3.875 5.625 -4.40625 C 5.625 -4.945312 5.445312 -5.359375 5.09375 -5.640625 C 4.75 -5.929688 4.242188 -6.078125 3.578125 -6.078125 L 1.796875 -6.078125 L 1.796875 -2.71875 Z M 3.578125 -2.71875 "/></g></g></g><g fill="#ff6100" fill-opacity="1"><g transform="translate(164.677558, 235.735825)"><g/></g></g><g fill="#ff6100" fill-opacity="1"><g transform="translate(170.160742, 235.735825)"><g><path d="M 2.390625 -6.078125 L 0.03125 -6.078125 L 0.03125 -6.6875 L 5.453125 -6.6875 L 5.453125 -6.078125 L 3.09375 -6.078125 L 3.09375 0 L 2.390625 0 Z M 2.390625 -6.078125 "/></g></g></g><g fill="#ff6100" fill-opacity="1"><g transform="translate(178.627413, 235.735825)"><g><path d="M 5.65625 0 L 4.125 -2.15625 C 3.957031 -2.132812 3.78125 -2.125 3.59375 -2.125 L 1.796875 -2.125 L 1.796875 0 L 1.09375 0 L 1.09375 -6.6875 L 3.59375 -6.6875 C 4.445312 -6.6875 5.113281 -6.484375 5.59375 -6.078125 C 6.082031 -5.671875 6.328125 -5.113281 6.328125 -4.40625 C 6.328125 -3.875 6.191406 -3.425781 5.921875 -3.0625 C 5.660156 -2.707031 5.285156 -2.453125 4.796875 -2.296875 L 6.4375 0 Z M 3.578125 -2.71875 C 4.242188 -2.71875 4.75 -2.863281 5.09375 -3.15625 C 5.445312 -3.457031 5.625 -3.875 5.625 -4.40625 C 5.625 -4.945312 5.445312 -5.359375 5.09375 -5.640625 C 4.75 -5.929688 4.242188 -6.078125 3.578125 -6.078125 L 1.796875 -6.078125 L 1.796875 -2.71875 Z M 3.578125 -2.71875 "/></g></g></g><g fill="#ff6100" fill-opacity="1"><g transform="translate(188.518884, 235.735825)"><g><path d="M 3.78125 0.0625 C 2.914062 0.0625 2.238281 -0.1875 1.75 -0.6875 C 1.269531 -1.1875 1.03125 -1.910156 1.03125 -2.859375 L 1.03125 -6.6875 L 1.734375 -6.6875 L 1.734375 -2.890625 C 1.734375 -2.109375 1.910156 -1.523438 2.265625 -1.140625 C 2.617188 -0.765625 3.125 -0.578125 3.78125 -0.578125 C 4.457031 -0.578125 4.96875 -0.765625 5.3125 -1.140625 C 5.664062 -1.523438 5.84375 -2.109375 5.84375 -2.890625 L 5.84375 -6.6875 L 6.53125 -6.6875 L 6.53125 -2.859375 C 6.53125 -1.910156 6.289062 -1.1875 5.8125 -0.6875 C 5.332031 -0.1875 4.65625 0.0625 3.78125 0.0625 Z M 3.78125 0.0625 "/></g></g></g><g fill="#ff6100" fill-opacity="1"><g transform="translate(199.070164, 235.735825)"><g><path d="M 2.9375 0.0625 C 2.4375 0.0625 1.957031 -0.015625 1.5 -0.171875 C 1.050781 -0.335938 0.703125 -0.550781 0.453125 -0.8125 L 0.734375 -1.359375 C 0.972656 -1.117188 1.289062 -0.921875 1.6875 -0.765625 C 2.09375 -0.617188 2.507812 -0.546875 2.9375 -0.546875 C 3.53125 -0.546875 3.976562 -0.65625 4.28125 -0.875 C 4.582031 -1.09375 4.734375 -1.378906 4.734375 -1.734375 C 4.734375 -1.992188 4.648438 -2.203125 4.484375 -2.359375 C 4.328125 -2.523438 4.128906 -2.648438 3.890625 -2.734375 C 3.648438 -2.828125 3.320312 -2.921875 2.90625 -3.015625 C 2.40625 -3.148438 2.003906 -3.273438 1.703125 -3.390625 C 1.398438 -3.503906 1.140625 -3.679688 0.921875 -3.921875 C 0.710938 -4.171875 0.609375 -4.503906 0.609375 -4.921875 C 0.609375 -5.253906 0.695312 -5.554688 0.875 -5.828125 C 1.050781 -6.109375 1.320312 -6.332031 1.6875 -6.5 C 2.0625 -6.664062 2.523438 -6.75 3.078125 -6.75 C 3.460938 -6.75 3.835938 -6.695312 4.203125 -6.59375 C 4.566406 -6.488281 4.882812 -6.34375 5.15625 -6.15625 L 4.921875 -5.59375 C 4.640625 -5.78125 4.335938 -5.921875 4.015625 -6.015625 C 3.691406 -6.109375 3.378906 -6.15625 3.078125 -6.15625 C 2.492188 -6.15625 2.050781 -6.039062 1.75 -5.8125 C 1.457031 -5.582031 1.3125 -5.289062 1.3125 -4.9375 C 1.3125 -4.664062 1.390625 -4.445312 1.546875 -4.28125 C 1.710938 -4.125 1.914062 -4 2.15625 -3.90625 C 2.40625 -3.820312 2.738281 -3.734375 3.15625 -3.640625 C 3.644531 -3.515625 4.039062 -3.390625 4.34375 -3.265625 C 4.644531 -3.148438 4.898438 -2.972656 5.109375 -2.734375 C 5.328125 -2.492188 5.4375 -2.171875 5.4375 -1.765625 C 5.4375 -1.429688 5.34375 -1.125 5.15625 -0.84375 C 4.976562 -0.570312 4.703125 -0.351562 4.328125 -0.1875 C 3.953125 -0.0195312 3.488281 0.0625 2.9375 0.0625 Z M 2.9375 0.0625 "/></g></g></g><g fill="#ff6100" fill-opacity="1"><g transform="translate(207.928898, 235.735825)"><g><path d="M 2.390625 -6.078125 L 0.03125 -6.078125 L 0.03125 -6.6875 L 5.453125 -6.6875 L 5.453125 -6.078125 L 3.09375 -6.078125 L 3.09375 0 L 2.390625 0 Z M 2.390625 -6.078125 "/></g></g></g><g fill="#ff6100" fill-opacity="1"><g transform="translate(216.395568, 235.735825)"><g><path d="M 5.828125 -0.609375 L 5.828125 0 L 1.09375 0 L 1.09375 -6.6875 L 5.6875 -6.6875 L 5.6875 -6.078125 L 1.796875 -6.078125 L 1.796875 -3.703125 L 5.265625 -3.703125 L 5.265625 -3.09375 L 1.796875 -3.09375 L 1.796875 -0.609375 Z M 5.828125 -0.609375 "/></g></g></g><g fill="#ff6100" fill-opacity="1"><g transform="translate(225.770671, 235.735825)"><g><path d="M 1.09375 -6.6875 L 3.8125 -6.6875 C 4.519531 -6.6875 5.144531 -6.546875 5.6875 -6.265625 C 6.226562 -5.984375 6.648438 -5.585938 6.953125 -5.078125 C 7.253906 -4.578125 7.40625 -4 7.40625 -3.34375 C 7.40625 -2.695312 7.253906 -2.117188 6.953125 -1.609375 C 6.648438 -1.097656 6.226562 -0.703125 5.6875 -0.421875 C 5.144531 -0.140625 4.519531 0 3.8125 0 L 1.09375 0 Z M 3.78125 -0.609375 C 4.363281 -0.609375 4.875 -0.722656 5.3125 -0.953125 C 5.75 -1.191406 6.085938 -1.515625 6.328125 -1.921875 C 6.578125 -2.335938 6.703125 -2.8125 6.703125 -3.34375 C 6.703125 -3.882812 6.578125 -4.359375 6.328125 -4.765625 C 6.085938 -5.179688 5.75 -5.503906 5.3125 -5.734375 C 4.875 -5.960938 4.363281 -6.078125 3.78125 -6.078125 L 1.796875 -6.078125 L 1.796875 -0.609375 Z M 3.78125 -0.609375 "/></g></g></g><g fill="#ff6100" fill-opacity="1"><g transform="translate(236.647078, 235.735825)"><g/></g></g><g fill="#ff6100" fill-opacity="1"><g transform="translate(242.130262, 235.735825)"><g><path d="M 2.9375 0.0625 C 2.4375 0.0625 1.957031 -0.015625 1.5 -0.171875 C 1.050781 -0.335938 0.703125 -0.550781 0.453125 -0.8125 L 0.734375 -1.359375 C 0.972656 -1.117188 1.289062 -0.921875 1.6875 -0.765625 C 2.09375 -0.617188 2.507812 -0.546875 2.9375 -0.546875 C 3.53125 -0.546875 3.976562 -0.65625 4.28125 -0.875 C 4.582031 -1.09375 4.734375 -1.378906 4.734375 -1.734375 C 4.734375 -1.992188 4.648438 -2.203125 4.484375 -2.359375 C 4.328125 -2.523438 4.128906 -2.648438 3.890625 -2.734375 C 3.648438 -2.828125 3.320312 -2.921875 2.90625 -3.015625 C 2.40625 -3.148438 2.003906 -3.273438 1.703125 -3.390625 C 1.398438 -3.503906 1.140625 -3.679688 0.921875 -3.921875 C 0.710938 -4.171875 0.609375 -4.503906 0.609375 -4.921875 C 0.609375 -5.253906 0.695312 -5.554688 0.875 -5.828125 C 1.050781 -6.109375 1.320312 -6.332031 1.6875 -6.5 C 2.0625 -6.664062 2.523438 -6.75 3.078125 -6.75 C 3.460938 -6.75 3.835938 -6.695312 4.203125 -6.59375 C 4.566406 -6.488281 4.882812 -6.34375 5.15625 -6.15625 L 4.921875 -5.59375 C 4.640625 -5.78125 4.335938 -5.921875 4.015625 -6.015625 C 3.691406 -6.109375 3.378906 -6.15625 3.078125 -6.15625 C 2.492188 -6.15625 2.050781 -6.039062 1.75 -5.8125 C 1.457031 -5.582031 1.3125 -5.289062 1.3125 -4.9375 C 1.3125 -4.664062 1.390625 -4.445312 1.546875 -4.28125 C 1.710938 -4.125 1.914062 -4 2.15625 -3.90625 C 2.40625 -3.820312 2.738281 -3.734375 3.15625 -3.640625 C 3.644531 -3.515625 4.039062 -3.390625 4.34375 -3.265625 C 4.644531 -3.148438 4.898438 -2.972656 5.109375 -2.734375 C 5.328125 -2.492188 5.4375 -2.171875 5.4375 -1.765625 C 5.4375 -1.429688 5.34375 -1.125 5.15625 -0.84375 C 4.976562 -0.570312 4.703125 -0.351562 4.328125 -0.1875 C 3.953125 -0.0195312 3.488281 0.0625 2.9375 0.0625 Z M 2.9375 0.0625 "/></g></g></g><g fill="#ff6100" fill-opacity="1"><g transform="translate(250.988996, 235.735825)"><g><path d="M 6.6875 -6.6875 L 6.6875 0 L 5.984375 0 L 5.984375 -3.09375 L 1.796875 -3.09375 L 1.796875 0 L 1.09375 0 L 1.09375 -6.6875 L 1.796875 -6.6875 L 1.796875 -3.703125 L 5.984375 -3.703125 L 5.984375 -6.6875 Z M 6.6875 -6.6875 "/></g></g></g><g fill="#ff6100" fill-opacity="1"><g transform="translate(261.741085, 235.735825)"><g><path d="M 4.015625 0.0625 C 3.347656 0.0625 2.742188 -0.0820312 2.203125 -0.375 C 1.671875 -0.675781 1.253906 -1.082031 0.953125 -1.59375 C 0.648438 -2.113281 0.5 -2.695312 0.5 -3.34375 C 0.5 -3.988281 0.648438 -4.566406 0.953125 -5.078125 C 1.253906 -5.597656 1.671875 -6.003906 2.203125 -6.296875 C 2.742188 -6.597656 3.347656 -6.75 4.015625 -6.75 C 4.679688 -6.75 5.28125 -6.601562 5.8125 -6.3125 C 6.34375 -6.019531 6.757812 -5.613281 7.0625 -5.09375 C 7.375 -4.570312 7.53125 -3.988281 7.53125 -3.34375 C 7.53125 -2.695312 7.375 -2.113281 7.0625 -1.59375 C 6.757812 -1.082031 6.34375 -0.675781 5.8125 -0.375 C 5.28125 -0.0820312 4.679688 0.0625 4.015625 0.0625 Z M 4.015625 -0.578125 C 4.546875 -0.578125 5.023438 -0.695312 5.453125 -0.9375 C 5.878906 -1.175781 6.210938 -1.503906 6.453125 -1.921875 C 6.691406 -2.347656 6.8125 -2.820312 6.8125 -3.34375 C 6.8125 -3.863281 6.691406 -4.335938 6.453125 -4.765625 C 6.210938 -5.191406 5.878906 -5.523438 5.453125 -5.765625 C 5.023438 -6.003906 4.546875 -6.125 4.015625 -6.125 C 3.484375 -6.125 3.003906 -6.003906 2.578125 -5.765625 C 2.148438 -5.523438 1.8125 -5.191406 1.5625 -4.765625 C 1.3125 -4.335938 1.1875 -3.863281 1.1875 -3.34375 C 1.1875 -2.820312 1.3125 -2.347656 1.5625 -1.921875 C 1.8125 -1.503906 2.148438 -1.175781 2.578125 -0.9375 C 3.003906 -0.695312 3.484375 -0.578125 4.015625 -0.578125 Z M 4.015625 -0.578125 "/></g></g></g><g fill="#ff6100" fill-opacity="1"><g transform="translate(272.741798, 235.735825)"><g><path d="M 3.59375 -6.6875 C 4.445312 -6.6875 5.113281 -6.484375 5.59375 -6.078125 C 6.082031 -5.671875 6.328125 -5.113281 6.328125 -4.40625 C 6.328125 -3.6875 6.082031 -3.125 5.59375 -2.71875 C 5.113281 -2.3125 4.445312 -2.109375 3.59375 -2.109375 L 1.796875 -2.109375 L 1.796875 0 L 1.09375 0 L 1.09375 -6.6875 Z M 3.578125 -2.734375 C 4.242188 -2.734375 4.75 -2.878906 5.09375 -3.171875 C 5.445312 -3.460938 5.625 -3.875 5.625 -4.40625 C 5.625 -4.945312 5.445312 -5.359375 5.09375 -5.640625 C 4.75 -5.929688 4.242188 -6.078125 3.578125 -6.078125 L 1.796875 -6.078125 L 1.796875 -2.734375 Z M 3.578125 -2.734375 "/></g></g></g><g clip-path="url(#764c45b063)"><path fill="#ffffff" d="M 285.992188 202.449219 L 178.84375 202.449219 L 153.21875 123.703125 L 121.800781 123.703125 L 121.800781 113.519531 L 160.613281 113.519531 L 186.238281 192.269531 L 285.992188 192.269531 Z M 285.992188 202.449219 " fill-opacity="1" fill-rule="nonzero"/></g><g clip-path="url(#a125ac4ef4)"><path fill="#ff6100" d="M 212.675781 209.523438 C 212.675781 210.101562 212.617188 210.671875 212.503906 211.238281 C 212.394531 211.800781 212.226562 212.351562 212.003906 212.882812 C 211.785156 213.414062 211.515625 213.921875 211.195312 214.402344 C 210.875 214.878906 210.511719 215.324219 210.101562 215.730469 C 209.695312 216.136719 209.25 216.5 208.773438 216.820312 C 208.292969 217.140625 207.785156 217.414062 207.253906 217.632812 C 206.722656 217.851562 206.171875 218.019531 205.609375 218.132812 C 205.042969 218.246094 204.472656 218.300781 203.894531 218.300781 C 203.320312 218.300781 202.746094 218.246094 202.183594 218.132812 C 201.617188 218.019531 201.066406 217.851562 200.535156 217.632812 C 200.003906 217.414062 199.496094 217.140625 199.015625 216.820312 C 198.539062 216.5 198.09375 216.136719 197.6875 215.730469 C 197.28125 215.324219 196.914062 214.878906 196.59375 214.402344 C 196.273438 213.921875 196.003906 213.414062 195.785156 212.882812 C 195.5625 212.351562 195.398438 211.800781 195.285156 211.238281 C 195.171875 210.671875 195.117188 210.101562 195.117188 209.523438 C 195.117188 208.949219 195.171875 208.378906 195.285156 207.8125 C 195.398438 207.246094 195.5625 206.699219 195.785156 206.164062 C 196.003906 205.632812 196.273438 205.128906 196.59375 204.648438 C 196.914062 204.167969 197.28125 203.726562 197.6875 203.320312 C 198.09375 202.910156 198.539062 202.546875 199.015625 202.226562 C 199.496094 201.90625 200.003906 201.636719 200.535156 201.417969 C 201.066406 201.195312 201.617188 201.027344 202.183594 200.917969 C 202.746094 200.804688 203.320312 200.75 203.894531 200.75 C 204.472656 200.75 205.042969 200.804688 205.609375 200.917969 C 206.171875 201.027344 206.722656 201.195312 207.253906 201.417969 C 207.785156 201.636719 208.292969 201.90625 208.773438 202.226562 C 209.25 202.546875 209.695312 202.910156 210.101562 203.320312 C 210.511719 203.726562 210.875 204.167969 211.195312 204.648438 C 211.515625 205.128906 211.785156 205.632812 212.003906 206.164062 C 212.226562 206.699219 212.394531 207.246094 212.503906 207.8125 C 212.617188 208.378906 212.675781 208.949219 212.675781 209.523438 Z M 212.675781 209.523438 " fill-opacity="1" fill-rule="nonzero"/></g><g clip-path="url(#1aea5621f0)"><path fill="#ff6100" d="M 270.28125 209.523438 C 270.28125 210.101562 270.226562 210.671875 270.113281 211.238281 C 270 211.800781 269.835938 212.351562 269.613281 212.882812 C 269.394531 213.414062 269.125 213.921875 268.804688 214.402344 C 268.484375 214.878906 268.117188 215.324219 267.710938 215.730469 C 267.304688 216.136719 266.859375 216.5 266.382812 216.820312 C 265.902344 217.140625 265.394531 217.414062 264.863281 217.632812 C 264.332031 217.851562 263.78125 218.019531 263.214844 218.132812 C 262.652344 218.246094 262.082031 218.300781 261.503906 218.300781 C 260.925781 218.300781 260.355469 218.246094 259.789062 218.132812 C 259.226562 218.019531 258.675781 217.851562 258.144531 217.632812 C 257.613281 217.414062 257.105469 217.140625 256.625 216.820312 C 256.148438 216.5 255.703125 216.136719 255.296875 215.730469 C 254.886719 215.324219 254.523438 214.878906 254.203125 214.402344 C 253.882812 213.921875 253.613281 213.414062 253.394531 212.882812 C 253.171875 212.351562 253.003906 211.800781 252.894531 211.238281 C 252.78125 210.671875 252.722656 210.101562 252.722656 209.523438 C 252.722656 208.949219 252.78125 208.378906 252.894531 207.8125 C 253.003906 207.246094 253.171875 206.699219 253.394531 206.164062 C 253.613281 205.632812 253.882812 205.128906 254.203125 204.648438 C 254.523438 204.167969 254.886719 203.726562 255.296875 203.320312 C 255.703125 202.910156 256.148438 202.546875 256.625 202.226562 C 257.105469 201.90625 257.613281 201.636719 258.144531 201.417969 C 258.675781 201.195312 259.226562 201.027344 259.789062 200.917969 C 260.355469 200.804688 260.925781 200.75 261.503906 200.75 C 262.082031 200.75 262.652344 200.804688 263.214844 200.917969 C 263.78125 201.027344 264.332031 201.195312 264.863281 201.417969 C 265.394531 201.636719 265.902344 201.90625 266.382812 202.226562 C 266.859375 202.546875 267.304688 202.910156 267.710938 203.320312 C 268.117188 203.726562 268.484375 204.167969 268.804688 204.648438 C 269.125 205.128906 269.394531 205.632812 269.613281 206.164062 C 269.835938 206.699219 270 207.246094 270.113281 207.8125 C 270.226562 208.378906 270.28125 208.949219 270.28125 209.523438 Z M 270.28125 209.523438 " fill-opacity="1" fill-rule="nonzero"/></g><path fill="#ff6100" d="M 230.058594 180.273438 C 230.058594 180.703125 230.015625 181.128906 229.929688 181.550781 C 229.847656 181.972656 229.722656 182.382812 229.558594 182.777344 C 229.394531 183.175781 229.191406 183.554688 228.953125 183.910156 C 228.714844 184.265625 228.445312 184.597656 228.140625 184.902344 C 227.835938 185.207031 227.503906 185.476562 227.148438 185.714844 C 226.789062 185.953125 226.414062 186.15625 226.015625 186.320312 C 225.617188 186.484375 225.210938 186.609375 224.789062 186.691406 C 224.367188 186.777344 223.941406 186.816406 223.511719 186.816406 C 223.082031 186.816406 222.65625 186.777344 222.234375 186.691406 C 221.8125 186.609375 221.402344 186.484375 221.007812 186.320312 C 220.609375 186.15625 220.230469 185.953125 219.875 185.714844 C 219.515625 185.476562 219.1875 185.207031 218.882812 184.902344 C 218.578125 184.597656 218.308594 184.265625 218.070312 183.910156 C 217.828125 183.554688 217.628906 183.175781 217.464844 182.777344 C 217.300781 182.382812 217.175781 181.972656 217.089844 181.550781 C 217.007812 181.128906 216.964844 180.703125 216.964844 180.273438 C 216.964844 179.84375 217.007812 179.417969 217.089844 178.996094 C 217.175781 178.578125 217.300781 178.167969 217.464844 177.769531 C 217.628906 177.375 217.828125 176.996094 218.070312 176.640625 C 218.308594 176.28125 218.578125 175.953125 218.882812 175.648438 C 219.1875 175.34375 219.515625 175.074219 219.875 174.832031 C 220.230469 174.59375 220.609375 174.394531 221.007812 174.230469 C 221.402344 174.066406 221.8125 173.941406 222.234375 173.855469 C 222.65625 173.773438 223.082031 173.730469 223.511719 173.730469 C 223.941406 173.730469 224.367188 173.773438 224.789062 173.855469 C 225.210938 173.941406 225.617188 174.066406 226.015625 174.230469 C 226.414062 174.394531 226.789062 174.59375 227.148438 174.832031 C 227.503906 175.074219 227.835938 175.34375 228.140625 175.648438 C 228.445312 175.953125 228.714844 176.28125 228.953125 176.640625 C 229.191406 176.996094 229.394531 177.375 229.558594 177.769531 C 229.722656 178.167969 229.847656 178.578125 229.929688 178.996094 C 230.015625 179.417969 230.058594 179.84375 230.058594 180.273438 Z M 230.058594 180.273438 " fill-opacity="1" fill-rule="nonzero"/><path fill="#ff6100" d="M 274.929688 144.515625 C 273.9375 144.515625 273.039062 144.222656 272.238281 143.636719 C 248.445312 126.269531 218.097656 122.734375 184.488281 133.417969 C 184.203125 133.511719 183.910156 133.570312 183.613281 133.605469 C 183.316406 133.640625 183.019531 133.644531 182.71875 133.617188 C 182.421875 133.59375 182.128906 133.539062 181.839844 133.453125 C 181.550781 133.371094 181.273438 133.261719 181.007812 133.125 C 180.742188 132.984375 180.492188 132.824219 180.257812 132.636719 C 180.023438 132.449219 179.808594 132.242188 179.617188 132.011719 C 179.421875 131.78125 179.253906 131.539062 179.109375 131.273438 C 178.964844 131.011719 178.847656 130.738281 178.753906 130.453125 C 178.664062 130.167969 178.601562 129.875 178.570312 129.578125 C 178.535156 129.28125 178.53125 128.980469 178.554688 128.683594 C 178.582031 128.382812 178.636719 128.089844 178.71875 127.804688 C 178.800781 127.515625 178.914062 127.238281 179.050781 126.972656 C 179.1875 126.707031 179.351562 126.457031 179.539062 126.222656 C 179.726562 125.988281 179.933594 125.773438 180.164062 125.582031 C 180.390625 125.386719 180.636719 125.21875 180.898438 125.074219 C 181.164062 124.929688 181.4375 124.8125 181.722656 124.71875 C 199.757812 118.988281 217.125 117.054688 233.34375 118.980469 C 249.675781 120.917969 264.578125 126.734375 277.636719 136.265625 C 278.027344 136.550781 278.359375 136.886719 278.644531 137.277344 C 278.925781 137.667969 279.140625 138.09375 279.289062 138.550781 C 279.4375 139.007812 279.511719 139.480469 279.511719 139.960938 C 279.507812 140.441406 279.433594 140.914062 279.285156 141.371094 C 279.132812 141.828125 278.917969 142.25 278.632812 142.640625 C 278.351562 143.03125 278.011719 143.367188 277.621094 143.648438 C 277.234375 143.929688 276.808594 144.144531 276.351562 144.292969 C 275.890625 144.441406 275.421875 144.515625 274.9375 144.515625 Z M 274.929688 144.515625 " fill-opacity="1" fill-rule="nonzero"/><path fill="#ff6100" d="M 256.699219 158.625 C 255.707031 158.625 254.8125 158.332031 254.011719 157.746094 C 237.480469 145.675781 221.171875 143.792969 197.714844 151.25 C 197.429688 151.339844 197.136719 151.402344 196.839844 151.433594 C 196.542969 151.46875 196.242188 151.472656 195.945312 151.449219 C 195.644531 151.421875 195.351562 151.367188 195.0625 151.285156 C 194.777344 151.203125 194.5 151.089844 194.234375 150.953125 C 193.964844 150.816406 193.714844 150.652344 193.480469 150.464844 C 193.246094 150.277344 193.035156 150.070312 192.839844 149.84375 C 192.648438 149.613281 192.476562 149.367188 192.332031 149.105469 C 192.1875 148.84375 192.070312 148.570312 191.980469 148.28125 C 191.890625 147.996094 191.828125 147.707031 191.792969 147.40625 C 191.761719 147.109375 191.757812 146.8125 191.78125 146.511719 C 191.808594 146.214844 191.859375 145.921875 191.945312 145.632812 C 192.027344 145.34375 192.136719 145.066406 192.277344 144.800781 C 192.414062 144.535156 192.574219 144.285156 192.761719 144.050781 C 192.949219 143.816406 193.160156 143.605469 193.386719 143.410156 C 193.617188 143.21875 193.863281 143.046875 194.125 142.902344 C 194.386719 142.757812 194.660156 142.640625 194.945312 142.550781 C 208.183594 138.335938 219.671875 136.933594 230.0625 138.222656 C 240.359375 139.5 249.953125 143.480469 259.414062 150.382812 C 259.804688 150.667969 260.140625 151.003906 260.421875 151.394531 C 260.703125 151.785156 260.917969 152.207031 261.066406 152.667969 C 261.214844 153.125 261.289062 153.59375 261.289062 154.078125 C 261.285156 154.558594 261.210938 155.027344 261.0625 155.484375 C 260.914062 155.945312 260.695312 156.367188 260.410156 156.757812 C 260.128906 157.144531 259.789062 157.480469 259.402344 157.765625 C 259.011719 158.046875 258.585938 158.261719 258.128906 158.410156 C 257.667969 158.558594 257.199219 158.632812 256.71875 158.632812 Z M 256.699219 158.625 " fill-opacity="1" fill-rule="nonzero"/><path fill="#ff6100" d="M 242.628906 173.292969 C 241.636719 173.292969 240.738281 173 239.9375 172.414062 C 229.984375 165.144531 221.910156 164.1875 207.941406 168.628906 C 207.65625 168.722656 207.363281 168.78125 207.066406 168.816406 C 206.765625 168.851562 206.46875 168.855469 206.171875 168.828125 C 205.871094 168.804688 205.578125 168.75 205.289062 168.664062 C 205 168.582031 204.726562 168.472656 204.457031 168.335938 C 204.191406 168.195312 203.941406 168.035156 203.707031 167.847656 C 203.472656 167.660156 203.257812 167.453125 203.066406 167.222656 C 202.875 166.992188 202.703125 166.746094 202.558594 166.484375 C 202.414062 166.222656 202.296875 165.949219 202.207031 165.664062 C 202.113281 165.378906 202.054688 165.085938 202.019531 164.789062 C 201.984375 164.492188 201.980469 164.191406 202.007812 163.894531 C 202.03125 163.59375 202.085938 163.300781 202.171875 163.015625 C 202.253906 162.726562 202.363281 162.449219 202.5 162.183594 C 202.640625 161.917969 202.800781 161.667969 202.988281 161.433594 C 203.175781 161.199219 203.382812 160.984375 203.613281 160.792969 C 203.84375 160.597656 204.089844 160.429688 204.351562 160.285156 C 204.613281 160.140625 204.886719 160.023438 205.171875 159.929688 C 221.789062 154.664062 233.046875 156.070312 245.324219 165.042969 C 245.714844 165.328125 246.050781 165.664062 246.332031 166.054688 C 246.613281 166.445312 246.832031 166.867188 246.976562 167.328125 C 247.125 167.785156 247.199219 168.253906 247.199219 168.738281 C 247.199219 169.21875 247.121094 169.6875 246.972656 170.144531 C 246.824219 170.605469 246.605469 171.027344 246.324219 171.417969 C 246.039062 171.804688 245.703125 172.140625 245.3125 172.425781 C 244.921875 172.707031 244.496094 172.921875 244.039062 173.070312 C 243.582031 173.21875 243.109375 173.292969 242.628906 173.292969 Z M 242.628906 173.292969 " fill-opacity="1" fill-rule="nonzero"/><path fill="#ff6100" d="M 116.292969 149.015625 L 148.96875 149.015625 C 149.445312 149.015625 149.90625 149.109375 150.347656 149.289062 C 150.789062 149.472656 151.179688 149.734375 151.515625 150.070312 C 151.855469 150.410156 152.113281 150.796875 152.296875 151.238281 C 152.480469 151.679688 152.570312 152.140625 152.570312 152.617188 L 152.570312 152.804688 C 152.570312 153.28125 152.480469 153.742188 152.296875 154.183594 C 152.113281 154.625 151.855469 155.011719 151.515625 155.351562 C 151.179688 155.6875 150.789062 155.949219 150.347656 156.132812 C 149.90625 156.316406 149.445312 156.40625 148.96875 156.40625 L 116.292969 156.40625 C 115.816406 156.40625 115.355469 156.316406 114.914062 156.132812 C 114.472656 155.949219 114.082031 155.6875 113.746094 155.351562 C 113.40625 155.011719 113.148438 154.625 112.964844 154.183594 C 112.78125 153.742188 112.691406 153.28125 112.691406 152.804688 L 112.691406 152.617188 C 112.691406 152.140625 112.78125 151.679688 112.964844 151.238281 C 113.148438 150.796875 113.40625 150.410156 113.746094 150.070312 C 114.082031 149.734375 114.472656 149.472656 114.914062 149.289062 C 115.355469 149.109375 115.816406 149.015625 116.292969 149.015625 Z M 116.292969 149.015625 " fill-opacity="1" fill-rule="nonzero"/><path fill="#ff6100" d="M 98.082031 175.808594 L 134.125 175.808594 C 134.601562 175.808594 135.0625 175.902344 135.503906 176.082031 C 135.945312 176.265625 136.335938 176.527344 136.671875 176.863281 C 137.011719 177.203125 137.269531 177.589844 137.453125 178.03125 C 137.636719 178.472656 137.726562 178.933594 137.726562 179.410156 L 137.726562 179.597656 C 137.726562 180.074219 137.636719 180.535156 137.453125 180.976562 C 137.269531 181.417969 137.011719 181.804688 136.671875 182.144531 C 136.335938 182.480469 135.945312 182.742188 135.503906 182.925781 C 135.0625 183.109375 134.601562 183.199219 134.125 183.199219 L 98.082031 183.199219 C 97.605469 183.199219 97.144531 183.109375 96.703125 182.925781 C 96.261719 182.742188 95.871094 182.480469 95.535156 182.144531 C 95.195312 181.804688 94.9375 181.417969 94.753906 180.976562 C 94.570312 180.535156 94.480469 180.074219 94.480469 179.597656 L 94.480469 179.410156 C 94.480469 178.933594 94.570312 178.472656 94.753906 178.03125 C 94.9375 177.589844 95.195312 177.203125 95.535156 176.863281 C 95.871094 176.527344 96.261719 176.265625 96.703125 176.082031 C 97.144531 175.902344 97.605469 175.808594 98.082031 175.808594 Z M 98.082031 175.808594 " fill-opacity="1" fill-rule="nonzero"/><g clip-path="url(#84cc17db57)"><path fill="#ffffff" d="M 92.351562 162.550781 L 114.828125 162.550781 C 115.304688 162.550781 115.765625 162.640625 116.207031 162.824219 C 116.648438 163.007812 117.039062 163.265625 117.375 163.605469 C 117.714844 163.941406 117.972656 164.332031 118.15625 164.773438 C 118.339844 165.214844 118.429688 165.675781 118.429688 166.152344 L 118.429688 166.335938 C 118.429688 166.816406 118.339844 167.273438 118.15625 167.714844 C 117.972656 168.15625 117.714844 168.546875 117.375 168.882812 C 117.039062 169.222656 116.648438 169.484375 116.207031 169.664062 C 115.765625 169.847656 115.304688 169.941406 114.828125 169.941406 L 92.351562 169.941406 C 91.871094 169.941406 91.414062 169.847656 90.972656 169.664062 C 90.53125 169.484375 90.140625 169.222656 89.804688 168.882812 C 89.464844 168.546875 89.203125 168.15625 89.023438 167.714844 C 88.839844 167.273438 88.746094 166.816406 88.746094 166.335938 L 88.746094 166.152344 C 88.746094 165.675781 88.839844 165.214844 89.023438 164.773438 C 89.203125 164.332031 89.464844 163.941406 89.804688 163.605469 C 90.140625 163.265625 90.53125 163.007812 90.972656 162.824219 C 91.414062 162.640625 91.871094 162.550781 92.351562 162.550781 Z M 92.351562 162.550781 " fill-opacity="1" fill-rule="nonzero"/></g><path fill="#ff6100" d="M 126.492188 162.550781 L 148.96875 162.550781 C 149.445312 162.550781 149.90625 162.640625 150.347656 162.824219 C 150.789062 163.007812 151.179688 163.265625 151.515625 163.605469 C 151.855469 163.941406 152.113281 164.332031 152.296875 164.773438 C 152.480469 165.214844 152.570312 165.675781 152.570312 166.152344 L 152.570312 166.335938 C 152.570312 166.816406 152.480469 167.273438 152.296875 167.714844 C 152.113281 168.15625 151.855469 168.546875 151.515625 168.882812 C 151.179688 169.222656 150.789062 169.484375 150.347656 169.664062 C 149.90625 169.847656 149.445312 169.941406 148.96875 169.941406 L 126.492188 169.941406 C 126.011719 169.941406 125.554688 169.847656 125.113281 169.664062 C 124.671875 169.484375 124.28125 169.222656 123.941406 168.882812 C 123.605469 168.546875 123.34375 168.15625 123.164062 167.714844 C 122.980469 167.273438 122.886719 166.816406 122.886719 166.335938 L 122.886719 166.152344 C 122.886719 165.675781 122.980469 165.214844 123.164062 164.773438 C 123.34375 164.332031 123.605469 163.941406 123.941406 163.605469 C 124.28125 163.265625 124.671875 163.007812 125.113281 162.824219 C 125.554688 162.640625 126.011719 162.550781 126.492188 162.550781 Z M 126.492188 162.550781 " fill-opacity="1" fill-rule="nonzero"/><path fill="#ffffff" d="M 145.09375 175.808594 L 152.335938 175.808594 C 152.816406 175.808594 153.273438 175.902344 153.714844 176.082031 C 154.15625 176.265625 154.546875 176.527344 154.882812 176.863281 C 155.222656 177.203125 155.484375 177.589844 155.664062 178.03125 C 155.847656 178.472656 155.941406 178.933594 155.941406 179.410156 L 155.941406 179.597656 C 155.941406 180.074219 155.847656 180.535156 155.664062 180.976562 C 155.484375 181.417969 155.222656 181.804688 154.882812 182.144531 C 154.546875 182.480469 154.15625 182.742188 153.714844 182.925781 C 153.273438 183.109375 152.816406 183.199219 152.335938 183.199219 L 145.09375 183.199219 C 144.617188 183.199219 144.160156 183.109375 143.71875 182.925781 C 143.277344 182.742188 142.886719 182.480469 142.546875 182.144531 C 142.210938 181.804688 141.949219 181.417969 141.765625 180.976562 C 141.585938 180.535156 141.492188 180.074219 141.492188 179.597656 L 141.492188 179.410156 C 141.492188 178.933594 141.585938 178.472656 141.765625 178.03125 C 141.949219 177.589844 142.210938 177.203125 142.546875 176.863281 C 142.886719 176.527344 143.277344 176.265625 143.71875 176.082031 C 144.160156 175.902344 144.617188 175.808594 145.09375 175.808594 Z M 145.09375 175.808594 " fill-opacity="1" fill-rule="nonzero"/><path fill="#ffffff" d="M 96.054688 149.015625 L 103.296875 149.015625 C 103.773438 149.015625 104.234375 149.109375 104.675781 149.289062 C 105.117188 149.472656 105.507812 149.734375 105.84375 150.070312 C 106.183594 150.410156 106.441406 150.796875 106.625 151.238281 C 106.808594 151.679688 106.898438 152.140625 106.898438 152.617188 L 106.898438 152.804688 C 106.898438 153.28125 106.808594 153.742188 106.625 154.183594 C 106.441406 154.625 106.183594 155.011719 105.84375 155.351562 C 105.507812 155.6875 105.117188 155.949219 104.675781 156.132812 C 104.234375 156.316406 103.773438 156.40625 103.296875 156.40625 L 96.054688 156.40625 C 95.578125 156.40625 95.117188 156.316406 94.675781 156.132812 C 94.234375 155.949219 93.84375 155.6875 93.507812 155.351562 C 93.167969 155.011719 92.910156 154.625 92.726562 154.183594 C 92.542969 153.742188 92.453125 153.28125 92.453125 152.804688 L 92.453125 152.617188 C 92.453125 152.140625 92.542969 151.679688 92.726562 151.238281 C 92.910156 150.796875 93.167969 150.410156 93.507812 150.070312 C 93.84375 149.734375 94.234375 149.472656 94.675781 149.289062 C 95.117188 149.109375 95.578125 149.015625 96.054688 149.015625 Z M 96.054688 149.015625 " fill-opacity="1" fill-rule="nonzero"/></svg>